# xmcd CD database file
#
# Track frame offsets:
#	150
#	44207
#	71793
#	122475
#	187795
#	211313
#	261218
#
# Disc length: 4062 seconds
#
# Revision: 0
# Processed by: cddbd v1.5.2PL0 Copyright (c) Steve Scherf et al.
# Submitted via: CDex 1.51
#
DISCID=670fdc07
DTITLE=Ed Jones - Piper's tales
DYEAR=1995
DGENRE=Jazz
TTITLE0=So the story goes
TTITLE1=Returning
TTITLE2=The long days
TTITLE3=The piper's tale
TTITLE4=Out in the open
TTITLE5=Past tense
TTITLE6=Kindred spirit
EXTD=YEAR: 1995
EXTT0=
EXTT1=
EXTT2=
EXTT3=
EXTT4=
EXTT5=
EXTT6=
PLAYORDER=
